<?xml version="1.0" standalone="no"?>
<!DOCTYPE svg PUBLIC "-//W3C//DTD SVG 1.1//EN"
"http://www.w3.org/Graphics/SVG/1.1/DTD/svg11.dtd">

<svg width="350" height="120" view_box="0 0 350 120"
xmlns="http://www.w3.org/2000/svg"
xmlns:link="http://www.w3.org/1999/xlink">\n\n<desc>Généré par Mocodo 2.3.7 le Mon, 06 Sep 2021 08:25:32</desc>

<rect id="frame" x="0" y="0" width="350" height="120" fill="#ffffbf" stroke="none" stroke-width="0"/>

<!-- Association appartient à -->
<line x1="57" y1="60" x2="182" y2="60" stroke="#66c2a5" stroke-width="2"/>
<text x="110" y="77.0" fill="#d53e4f" font-family="Verdana" font-size="12">1,1</text>
<line x1="300" y1="60" x2="182" y2="60" stroke="#66c2a5" stroke-width="2"/>
<text x="232" y="77.0" fill="#d53e4f" font-family="Verdana" font-size="12">1,N</text>
<g id="association-appartient à">
	<path d="M 213 35 a 14 14 90 0 1 14 14 V 60 h -90 V 49 a 14 14 90 0 1 14 -14" fill="#abdda4" stroke="#abdda4" stroke-width="0"/>
	<path d="M 227 60.0 v 11 a 14 14 90 0 1 -14 14 H 151 a 14 14 90 0 1 -14 -14 V 60.0 H 90" fill="#e6f598" stroke="#e6f598" stroke-width="0"/>
	<rect x="137" y="35" width="90" height="50" fill="none" rx="14" stroke="#66c2a5" stroke-width="2"/>
	<line x1="137" y1="60" x2="227" y2="60" stroke="#66c2a5" stroke-width="1"/>
	<text x="144" y="52.7" fill="#000000" font-family="Verdana" font-size="12">appartient à</text>
</g>

<!-- Entity CATÉGORIE -->
<g id="entity-CATÉGORIE">
	<g id="frame-CATÉGORIE">
		<rect x="259" y="35" width="82" height="25" fill="#fdae61" stroke="#fdae61" stroke-width="0"/>
		<rect x="259" y="60.0" width="82" height="25" fill="#fee08b" stroke="#fee08b" stroke-width="0"/>
		<rect x="259" y="35" width="82" height="50" fill="none" stroke="#f46d43" stroke-width="2"/>
		<line x1="259" y1="60" x2="341" y2="60" stroke="#f46d43" stroke-width="1"/>
	</g>
	<text x="264" y="52.7" fill="#000000" font-family="Verdana" font-size="12">CATÉGORIE</text>
	<text x="264" y="77.8" fill="#000000" font-family="Verdana" font-size="12">nom</text>
	<line x1="264" y1="80" x2="292" y2="80" stroke="#000000" stroke-width="1"/>
</g>

<!-- Entity INDICE -->
<g id="entity-INDICE">
	<g id="frame-INDICE">
		<rect x="9" y="9" width="96" height="25" fill="#fdae61" stroke="#fdae61" stroke-width="0"/>
		<rect x="9" y="34.0" width="96" height="77" fill="#fee08b" stroke="#fee08b" stroke-width="0"/>
		<rect x="9" y="9" width="96" height="102" fill="none" stroke="#f46d43" stroke-width="2"/>
		<line x1="9" y1="34" x2="105" y2="34" stroke="#f46d43" stroke-width="1"/>
	</g>
	<text x="34" y="26.7" fill="#000000" font-family="Verdana" font-size="12">INDICE</text>
	<text x="14" y="51.7" fill="#000000" font-family="Verdana" font-size="12">contenu</text>
	<line x1="14" y1="54" x2="63" y2="54" stroke="#000000" stroke-width="1"/>
	<text x="14" y="68.8" fill="#000000" font-family="Verdana" font-size="12">image</text>
	<text x="14" y="85.8" fill="#000000" font-family="Verdana" font-size="12">son</text>
	<text x="14" y="102.8" fill="#000000" font-family="Verdana" font-size="12">indice donnée</text>
</g>
</svg>