<?xml version="1.0" standalone="no"?>
<!DOCTYPE svg PUBLIC "-//W3C//DTD SVG 1.1//EN"
"http://www.w3.org/Graphics/SVG/1.1/DTD/svg11.dtd">

<svg width="314" height="120" view_box="0 0 314 120"
xmlns="http://www.w3.org/2000/svg"
xmlns:link="http://www.w3.org/1999/xlink">\n\n<desc>Généré par Mocodo 2.3.7 le Mon, 06 Sep 2021 08:33:56</desc>

<rect id="frame" x="0" y="0" width="314" height="120" fill="#ffffbf" stroke="none" stroke-width="0"/>

<!-- Association belongs to -->
<line x1="47" y1="60" x2="156" y2="60" stroke="#66c2a5" stroke-width="2"/>
<text x="90" y="77.0" fill="#d53e4f" font-family="Verdana" font-size="12">1,1</text>
<line x1="266" y1="60" x2="156" y2="60" stroke="#66c2a5" stroke-width="2"/>
<text x="200" y="77.0" fill="#d53e4f" font-family="Verdana" font-size="12">1,N</text>
<g id="association-belongs to">
	<path d="M 181 35 a 14 14 90 0 1 14 14 V 60 h -78 V 49 a 14 14 90 0 1 14 -14" fill="#abdda4" stroke="#abdda4" stroke-width="0"/>
	<path d="M 195 60.0 v 11 a 14 14 90 0 1 -14 14 H 131 a 14 14 90 0 1 -14 -14 V 60.0 H 78" fill="#e6f598" stroke="#e6f598" stroke-width="0"/>
	<rect x="117" y="35" width="78" height="50" fill="none" rx="14" stroke="#66c2a5" stroke-width="2"/>
	<line x1="117" y1="60" x2="195" y2="60" stroke="#66c2a5" stroke-width="1"/>
	<text x="124" y="52.7" fill="#000000" font-family="Verdana" font-size="12">belongs to</text>
</g>

<!-- Entity CATEGORY -->
<g id="entity-CATEGORY">
	<g id="frame-CATEGORY">
		<rect x="227" y="35" width="78" height="25" fill="#fdae61" stroke="#fdae61" stroke-width="0"/>
		<rect x="227" y="60.0" width="78" height="25" fill="#fee08b" stroke="#fee08b" stroke-width="0"/>
		<rect x="227" y="35" width="78" height="50" fill="none" stroke="#f46d43" stroke-width="2"/>
		<line x1="227" y1="60" x2="305" y2="60" stroke="#f46d43" stroke-width="1"/>
	</g>
	<text x="232" y="52.7" fill="#000000" font-family="Verdana" font-size="12">CATEGORY</text>
	<text x="232" y="77.8" fill="#000000" font-family="Verdana" font-size="12">name</text>
	<line x1="232" y1="80" x2="267" y2="80" stroke="#000000" stroke-width="1"/>
</g>

<!-- Entity HINT -->
<g id="entity-HINT">
	<g id="frame-HINT">
		<rect x="9" y="9" width="76" height="25" fill="#fdae61" stroke="#fdae61" stroke-width="0"/>
		<rect x="9" y="34.0" width="76" height="77" fill="#fee08b" stroke="#fee08b" stroke-width="0"/>
		<rect x="9" y="9" width="76" height="102" fill="none" stroke="#f46d43" stroke-width="2"/>
		<line x1="9" y1="34" x2="85" y2="34" stroke="#f46d43" stroke-width="1"/>
	</g>
	<text x="31" y="26.7" fill="#000000" font-family="Verdana" font-size="12">HINT</text>
	<text x="14" y="51.7" fill="#000000" font-family="Verdana" font-size="12">content</text>
	<line x1="14" y1="54" x2="60" y2="54" stroke="#000000" stroke-width="1"/>
	<text x="14" y="68.8" fill="#000000" font-family="Verdana" font-size="12">picture</text>
	<text x="14" y="85.8" fill="#000000" font-family="Verdana" font-size="12">sound</text>
	<text x="14" y="102.8" fill="#000000" font-family="Verdana" font-size="12">hint_given</text>
</g>
</svg>